<?xml version="1.0" encoding="UTF-8"?><svg id="b" xmlns="http://www.w3.org/2000/svg" viewBox="0 0 1088.57 139.93"><g id="c"><path d="M43,136.22H0V3.34h123.43v38.18H43v20.57h79.14v36.33H43v37.81Z" style="fill:#000; stroke-width:0px;"/><path d="M153.58,132.51c-24.09-10.01-37.44-30.02-37.44-61.9v-.37c0-14.83,3.52-27.43,10.19-37.81C140.05,11.3,164.7,0,196.57,0c15.57,0,29.47,2.78,41.33,8.15,24.09,11.12,38.36,32.06,38.36,61.9v.74c0,15.57-3.34,28.36-10.01,38.73-13.34,20.57-37.81,30.4-70.06,30.4-16.31,0-30.39-2.41-42.63-7.41ZM230.12,70.61c0-21.87-12.97-31.32-33.92-31.32s-33.92,10.01-33.92,31.14v.18c0,20.2,12.6,30.02,33.73,30.02s34.1-8.71,34.1-30.02Z" style="fill:#000; stroke-width:0px;"/><path d="M421.88,132.51c-24.09-10.01-37.44-30.02-37.44-61.9v-.37c0-14.83,3.52-27.43,10.19-37.81C408.35,11.3,433,0,464.87,0c15.57,0,29.47,2.78,41.33,8.15,24.09,11.12,38.36,32.06,38.36,61.9v.74c0,15.57-3.34,28.36-10.01,38.73-13.34,20.57-37.81,30.4-70.06,30.4-16.31,0-30.39-2.41-42.63-7.41ZM498.42,70.61c0-21.87-12.97-31.32-33.92-31.32s-33.92,10.01-33.92,31.14v.18c0,20.2,12.6,30.02,33.73,30.02s34.1-8.71,34.1-30.02Z" style="fill:#000; stroke-width:0px;"/><path d="M352.75,136.22h-45.59V42.26h-43V3.34h133.07v38.92h-44.48v93.96Z" style="fill:#000; stroke-width:0px;"/><path d="M587,136.22h-43V3.34h123.43v38.18h-80.43v20.57h79.14v36.33h-79.14v37.81Z" style="fill:#000; stroke-width:0px;"/><path d="M697.58,132.51c-24.09-10.01-37.44-30.02-37.44-61.9v-.37c0-14.83,3.52-27.43,10.19-37.81,13.71-21.13,38.36-32.43,70.24-32.43,15.57,0,29.47,2.78,41.33,8.15,24.09,11.12,38.36,32.06,38.36,61.9v.74c0,15.57-3.34,28.36-10.01,38.73-13.34,20.57-37.81,30.4-70.06,30.4-16.31,0-30.39-2.41-42.63-7.41ZM774.12,70.61c0-21.87-12.97-31.32-33.92-31.32s-33.92,10.01-33.92,31.14v.18c0,20.2,12.6,30.02,33.73,30.02s34.1-8.71,34.1-30.02Z" style="fill:#000; stroke-width:0px;"/><path d="M965.88,132.51c-24.09-10.01-37.44-30.02-37.44-61.9v-.37c0-14.83,3.52-27.43,10.19-37.81,13.71-21.13,38.36-32.43,70.24-32.43,15.57,0,29.47,2.78,41.33,8.15,24.09,11.12,38.36,32.06,38.36,61.9v.74c0,15.57-3.34,28.36-10.01,38.73-13.34,20.57-37.81,30.4-70.06,30.4-16.31,0-30.39-2.41-42.63-7.41ZM1042.42,70.61c0-21.87-12.97-31.32-33.92-31.32s-33.92,10.01-33.92,31.14v.18c0,20.2,12.6,30.02,33.73,30.02s34.1-8.71,34.1-30.02Z" style="fill:#000; stroke-width:0px;"/><path d="M896.75,136.22h-45.59V42.26h-43V3.34h133.07v38.92h-44.48v93.96Z" style="fill:#000; stroke-width:0px;"/></g></svg>