<?xml version="1.0" encoding="UTF-8"?><svg id="a" xmlns="http://www.w3.org/2000/svg" viewBox="0 0 288 288"><path d="M143.83,280.44c-33.66,0-66.03-12.47-91.16-35.1-25.29-22.78-41.07-53.99-44.43-87.89-3.59-36.26,7.15-71.75,30.25-99.94C61.59,29.33,94.29,11.83,130.55,8.24c4.52-.45,9.11-.68,13.62-.68,33.66,0,66.03,12.46,91.16,35.09,25.29,22.78,41.07,53.99,44.43,87.89,3.59,36.26-7.15,71.75-30.25,99.94-23.1,28.18-55.79,45.68-92.06,49.27-4.52.45-9.1.68-13.61.68h-.01Z" style="fill:#c1f6f7; stroke-width:0px;"/><path d="M144.17,15.06c31.8,0,62.39,11.78,86.14,33.17,23.9,21.53,38.81,51.02,41.99,83.06,3.4,34.27-6.76,67.81-28.59,94.44-21.83,26.63-52.73,43.17-87,46.57-4.28.42-8.61.64-12.88.64-31.8,0-62.39-11.78-86.14-33.17-23.9-21.53-38.81-51.02-41.99-83.06-3.4-34.27,6.76-67.81,28.59-94.44,21.83-26.63,52.73-43.17,87-46.57,4.28-.42,8.61-.64,12.88-.64M144.17.06c-4.75,0-9.53.23-14.36.71C50.71,8.61-7.06,79.09.78,158.19c7.36,74.27,69.96,129.75,143.05,129.75,4.75,0,9.53-.23,14.36-.71,79.1-7.84,136.87-78.31,129.04-157.41C279.87,55.54,217.27.06,144.17.06h0Z" style="fill:#000; stroke-width:0px;"/><g id="b"><path d="M196.47,104.29c3.41-3.27,6.61-6.34,10.31-9.88,17.83,18.84,25.12,41.53,21.58,66.03-4.83,33.35-24.16,56.76-57.18,66.67-30.57,9.17-57.36,1.23-81.04-20.56,3.61-3.62,6.88-6.91,10.59-10.64,15.56,14.63,33.96,21.9,55.48,19.37,16.08-1.9,29.48-9.34,40.59-21.12,17.77-18.83,27.2-54.82-.32-89.85Z" style="fill:#000; stroke-width:0px;"/><path d="M48.3,162.92c10.47-10.06,20.7-19.89,31.42-30.19,3.08,3.08,6.02,6.02,9.42,9.42-7.04,6.89-13.67,13.38-20.44,20.01,1.81,1.89,3.24,3.39,4.85,5.07,6.77-6.4,13.47-12.74,20.5-19.4,3.07,3.24,5.79,6.12,8.83,9.34-6.86,6.7-13.36,13.05-20.08,19.62,2.88,3.08,5.44,5.81,8.6,9.19-3.35,3.41-6.69,6.81-10.47,10.67-10.74-11.1-21.34-22.06-32.64-33.73Z" style="fill:#000; stroke-width:0px;"/><path d="M134.48,80.36c10.35-10.18,20.43-20.08,30.8-30.28,3.36,3.43,6.3,6.43,9.66,9.86-6.66,6.49-13.18,12.84-20.06,19.56,1.72,1.86,3.22,3.49,4.81,5.21,6.59-6.27,13.03-12.4,19.97-19,2.94,2.98,5.67,5.74,8.75,8.87-6.68,6.49-13.12,12.75-19.79,19.23,2.89,3.1,5.61,6.02,8.94,9.6-3.33,3.39-6.67,6.79-10.47,10.66-10.75-11.11-21.36-22.08-32.61-33.7Z" style="fill:#000; stroke-width:0px;"/></g></svg>